<?xml version="1.0" encoding="utf-8"?>
<!-- Generator: Adobe Illustrator 16.0.0, SVG Export Plug-In . SVG Version: 6.00 Build 0)  -->
<!DOCTYPE svg PUBLIC "-//W3C//DTD SVG 1.1//EN" "http://www.w3.org/Graphics/SVG/1.1/DTD/svg11.dtd">
<svg version="1.1" id="Layer_1" xmlns="http://www.w3.org/2000/svg" xmlns:xlink="http://www.w3.org/1999/xlink" x="0px" y="0px"
	 viewBox="0 0 300 79.685" enable-background="new 0 0 300 79.685" xml:space="preserve" preserveAspectRatio="xMinYMin slice">
<g>
	<path fill="#FFFFFF" d="M65.687,0.971H15.446c-7.591,0-13.75,6.155-13.75,13.75v50.239c0,7.595,6.159,13.752,13.75,13.752h50.241
		c7.596,0,13.754-6.158,13.754-13.752V14.722C79.441,7.126,73.283,0.971,65.687,0.971 M28.728,15.529
		c8.12-8.12,20.982-8.592,29.66-1.441c0.323,0.335,0.53,0.783,0.53,1.286c0,0.498-0.2,0.943-0.519,1.276
		c-4.239,4.243-24.782,24.783-28.558,28.56c-0.333,0.297-0.763,0.486-1.246,0.486c-0.55,0-1.042-0.24-1.384-0.621
		C20.146,36.399,20.647,23.612,28.728,15.529 M53.155,62.479c-8.089,8.091-20.891,8.584-29.569,1.502
		c-0.368-0.337-0.601-0.82-0.601-1.364c0-0.507,0.206-0.951,0.53-1.288c4.283-4.281,24.688-24.687,28.515-28.51
		c0.332-0.318,0.777-0.52,1.275-0.52c0.508,0,0.967,0.215,1.301,0.544C61.741,41.521,61.27,54.369,53.155,62.479"/>
	<path fill="#FFFFFF" d="M104.893,47.622c-1.894,0-3.617,1.665-3.617,3.484c0,0.73,0.232,1.423,0.685,2.073
		c2.175,3.273,7.105,4.978,10.852,4.978c6.415,0,13.226-4.022,13.226-11.475c0-7.784-6.229-10.232-11.236-12.208
		c-3.905-1.537-6.298-2.593-6.298-4.89c0-1.837,1.469-3.693,4.752-3.693c2.057,0,3.792,0.901,5.015,2.609
		c0.812,1.084,1.75,1.642,2.783,1.642c1.957,0,3.613-1.599,3.613-3.494c0-0.724-0.192-1.395-0.557-1.938
		c-2.161-3.339-6.623-5.663-10.853-5.663c-5.832,0-11.729,3.624-11.729,10.537c0,7.118,5.844,9.393,10.533,11.23
		c3.757,1.46,7.002,2.727,7.002,5.868c0,2.293-2.147,4.622-6.25,4.622c-1.254,0-3.602-0.289-5.152-2.189
		C106.833,48.159,105.851,47.622,104.893,47.622"/>
	<path fill="#FFFFFF" d="M263.542,19.008h-0.198c-6.847,0-12.354,5.566-12.354,12.417v14.388c0,0.413-0.041,0.833,0,1.239v27.355
		c0,1.901,1.544,3.448,3.447,3.448c1.904,0,3.447-1.547,3.447-3.448V56.508c1.311,1.167,3.496,1.72,5.459,1.72h0.198
		c6.847,0,12.066-5.924,12.066-12.77V31.082C275.608,24.225,270.389,19.008,263.542,19.008 M268.897,45.812
		c0,3.753-2.399,5.352-5.355,5.352h-0.198c-2.957,0-5.359-1.599-5.359-5.352V31.425c0-2.958,2.402-5.351,5.359-5.351h0.198
		c2.956,0,5.355,2.393,5.355,5.351V45.812z"/>
	<path fill="#FFFFFF" d="M243.794,22.343c-0.085-1.831-1.58-3.286-3.43-3.286c-1.854,0-3.344,1.455-3.429,3.286h-0.021v23.695
		c0,2.888-2.346,5.228-5.229,5.228h-0.194c-2.896,0-5.235-2.339-5.235-5.228V22.574c0-0.022,0.009-0.048,0.009-0.069
		c0-0.026-0.009-0.055-0.009-0.075v-0.085h-0.006c-0.086-1.832-1.585-3.286-3.433-3.286s-3.344,1.455-3.43,3.286h-0.026v23.695
		c0,6.682,5.439,12.131,12.13,12.131h0.194c6.685,0,12.128-5.449,12.128-12.131V22.344L243.794,22.343L243.794,22.343z"/>
	<path fill="#FFFFFF" d="M156.462,22.343c-0.085-1.831-1.581-3.286-3.432-3.286c-1.847,0-3.343,1.455-3.43,3.286h-0.017v23.695
		c0,2.888-2.344,5.228-5.236,5.228h-0.189c-2.886,0-5.229-2.339-5.229-5.228V22.574c0-0.022,0.003-0.048,0.003-0.069
		c0-0.026-0.003-0.055-0.003-0.075v-0.085h-0.009c-0.088-1.832-1.585-3.286-3.428-3.286c-1.853,0-3.35,1.455-3.435,3.286h-0.027
		v23.695c0,6.682,5.441,12.131,12.128,12.131h0.189c6.692,0,12.131-5.449,12.131-12.131V22.344L156.462,22.343L156.462,22.343z"/>
	<path fill="#FFFFFF" d="M193.461,19.057h-0.192c-3.402,0-6.475,1.412-8.68,3.673c-2.205-2.25-5.269-3.651-8.666-3.651h-0.188
		c-6.688,0-12.13,5.436-12.13,12.125v23.693h0.018c0.082,1.833,1.579,3.292,3.43,3.292s3.347-1.459,3.429-3.292h0.021V31.204
		c0-2.894,2.34-5.234,5.232-5.234h0.188c2.817,0,5.105,2.222,5.227,5.01c0,0.069-0.013,0.134-0.013,0.204v23.698h0.019
		c0.03,0.688,0.264,1.327,0.639,1.849c0.623,0.879,1.644,1.459,2.81,1.459c1.85,0,3.346-1.459,3.432-3.292h0.022V31.204
		c0-0.08-0.006-0.155-0.009-0.23c0.109-2.792,2.402-5.025,5.221-5.025h0.191c2.893,0,5.233,2.345,5.233,5.234v23.466
		c0,0.023-0.007,0.044-0.007,0.071c0,0.027,0.007,0.049,0.007,0.075v0.085h0.012c0.083,1.827,1.575,3.289,3.429,3.289
		c1.851,0,3.344-1.462,3.429-3.289h0.03V31.183C205.594,24.495,200.149,19.057,193.461,19.057"/>
	<path fill="#FFFFFF" d="M291.463,19.035c-3.775,0-6.843,3.076-6.843,6.844c0,3.779,3.067,6.845,6.843,6.845
		c3.773,0,6.841-3.066,6.841-6.845C298.304,22.111,295.236,19.035,291.463,19.035 M291.463,31.065c-2.854,0-5.184-2.33-5.184-5.187
		c0-2.854,2.33-5.168,5.184-5.168c2.857,0,5.182,2.314,5.182,5.168C296.645,28.735,294.32,31.065,291.463,31.065"/>
	<path fill="#FFFFFF" d="M289.338,23.427c0-0.467,0.354-0.73,0.728-0.73h1.757c1.297,0,2.144,0.794,2.144,1.992
		c0,0.945-0.582,1.626-1.494,1.797l1.27,1.368c0.197,0.216,0.305,0.387,0.305,0.629c0,0.209-0.187,0.675-0.747,0.675
		c-0.375,0-0.508-0.134-0.691-0.358l-1.788-2.261h-0.021v1.841c0,0.515-0.307,0.778-0.732,0.778c-0.419,0-0.729-0.263-0.729-0.778
		V23.427L289.338,23.427z M290.799,25.462h0.959c0.478,0,0.753-0.319,0.753-0.719c0-0.438-0.34-0.696-0.753-0.696h-0.959V25.462z"/>
</g>
</svg>
